<svg xmlns="http://www.w3.org/2000/svg" xmlns:xlink="http://www.w3.org/1999/xlink" version="1.1" x="0px" y="0px" viewBox="0 0 100 125" style="enable-background:new 0 0 100 100;" xml:space="preserve"><path d="M92.9360275,32.6408119c-2.9189148-2.9189091-6.8770599-4.5600243-11.0046997-4.5639744l-0.0003815-0.0001278h-0.6141129  c-1.8580093,0.0064983-3.6628799-0.6157684-5.1227798-1.7649822c-1.4590073-1.1499786-2.4866486-2.7591076-2.9157257-4.5672894  c-0.8090897-3.4034214-2.7436829-6.4340925-5.4905548-8.6002417c-2.7468796-2.1670408-6.1455803-3.3423786-9.6435585-3.3365173  H41.8551483c-3.4997597-0.0072632-6.8989754,1.1671829-9.6475067,3.3342237  c-2.7485275,2.1661491-4.6849117,5.1978397-5.4937439,8.6027908c-0.4281845,1.8065262-1.4549313,3.4147625-2.9131775,4.5647392  c-1.4574795,1.1492138-3.2615833,1.7722473-5.1179371,1.7674046h-0.6141129  c-4.1277637,0.0040779-8.085784,1.6450653-11.004694,4.5639744S2.5039506,39.5178719,2.5,43.6455078v30.9781723  c0.0040779,4.1277695,1.6450653,8.0859146,4.5639758,11.0046997c2.9189105,2.9189072,6.8770585,4.5600204,11.004694,4.5639725  h63.8626556c4.1278915-0.0040741,8.0859146-1.6450653,11.0046997-4.5639725  C95.8549347,82.709465,97.496048,78.7513199,97.5,74.6236801V43.6455078  C97.4959183,39.5177422,95.8549347,35.5597229,92.9360275,32.6408119z M87.7702942,80.4620132  c-1.549614,1.5487213-3.6496201,2.4198761-5.8395996,2.4215317H18.0680332  c-2.1898518-0.0016556-4.2901163-0.8726807-5.8397322-2.4215317c-1.5487242-1.549614-2.4198732-3.6497498-2.4215298-5.8397293  V43.6441078c0.0016565-2.1898537,0.8726778-4.2899895,2.4215298-5.8397331  c1.5496159-1.5487251,3.6496258-2.4198761,5.8397322-2.4215317h0.6141129  c3.4988689,0.0073929,6.8982124-1.1670532,9.6458492-3.334095c2.7477646-2.1670418,4.6832542-5.1984787,5.492218-8.6027908  c0.4298401-1.8065262,1.4567146-3.4147625,2.914959-4.5639763c1.459137-1.1492138,3.2623482-1.7722454,5.1195946-1.7681675  h16.2889366c1.8571167-0.0049706,3.6619873,0.6172981,5.1209984,1.7665119  c1.459137,1.1499767,2.4875412,2.7583408,2.9173813,4.5656319c0.8083191,3.4034214,2.7429199,6.4348564,5.4905548,8.6011353  c2.7468796,2.167038,6.1448212,3.3422508,9.6436844,3.3358765h0.6141129  c2.1898575,0.0015297,4.2899933,0.8726807,5.8396072,2.4215317c1.548851,1.5496178,2.4199982,3.6496277,2.4216537,5.8396072  l0.0002594,30.9781761C90.1903,76.8121338,89.3192749,78.9122696,87.7702942,80.4620132z"/><path d="M50.0005722,39.0382042c-4.8453522,0-9.4917793,1.9247856-12.9180107,5.351017  c-3.4262314,3.4263611-5.3511448,8.0726585-5.3511448,12.9181404c0,4.8453522,1.9247875,9.4917793,5.3511448,12.9180107  c3.4262314,3.4262314,8.0726585,5.3511429,12.9180107,5.3511429c4.8454819,0,9.491909-1.9247818,12.9181404-5.3511429  c3.4262352-3.4262314,5.351017-8.0726585,5.351017-12.9180107c-0.0057373-4.8436966-1.9320526-9.4870644-5.3575172-12.9116402  C59.4876404,40.9703827,54.8442688,39.0438118,50.0005722,39.0382042z M57.7519684,65.0586243  c-2.0561752,2.0552826-4.8436966,3.210228-7.7513962,3.210228c-2.9075661,0-5.6950912-1.1549454-7.7512665-3.210228  c-2.0552788-2.0560417-3.210228-4.8436928-3.210228-7.7512627c0-2.9076958,1.1549492-5.6952209,3.210228-7.7513924  c2.0560455-2.0552826,4.8437004-3.2101021,7.7512665-3.2101021c2.9076996,0,5.6952209,1.1548195,7.7513962,3.2101021  c2.0552788,2.0561714,3.2100983,4.8436966,3.2100983,7.7513924C60.9620667,60.2149315,59.8072472,63.0024567,57.7519684,65.0586243z  "/><text x="0" y="115" fill="#000000" font-size="5px" font-weight="bold" font-family="'Helvetica Neue', Helvetica, Arial-Unicode, Arial, Sans-serif">Created by khafidul firanda</text><text x="0" y="120" fill="#000000" font-size="5px" font-weight="bold" font-family="'Helvetica Neue', Helvetica, Arial-Unicode, Arial, Sans-serif">from the Noun Project</text></svg>