<svg xmlns:dc="http://purl.org/dc/elements/1.1/" xmlns:cc="http://creativecommons.org/ns#" xmlns:rdf="http://www.w3.org/1999/02/22-rdf-syntax-ns#" xmlns:svg="http://www.w3.org/2000/svg" xmlns="http://www.w3.org/2000/svg" xmlns:sodipodi="http://sodipodi.sourceforge.net/DTD/sodipodi-0.dtd" xmlns:inkscape="http://www.inkscape.org/namespaces/inkscape" version="1.1" x="0px" y="0px" viewBox="0 0 100 125"><g transform="translate(0,-952.36218)"><path style="text-indent:0;text-transform:none;direction:ltr;block-progression:tb;baseline-shift:baseline;color:#000000;enable-background:accumulate;" d="m 49.984456,959.28211 c -12.3834,0 -22.5624,9.8207 -22.5624,22 0,7.6864 4.0821,14.4312 10.1874,18.375 -18.3621,5.36899 -31.8124004,22.35919 -31.8124004,42.43749 0,0.091 -7e-4,0.159 0,0.25 a 3.10031,3.10031 0 0 0 2.8124,3.0937 3.10031,3.10031 0 0 0 0.3126,0 l 41.0937004,-0.25 41.0937,0 a 3.10031,3.10031 0 0 0 3.0938,-3.0937 c 0,-20.0715 -13.4286,-37.0624 -31.7812,-42.43749 6.0998,-3.9459 10.1562,-10.6981 10.1562,-18.375 0,-12.1793 -10.2102,-22 -22.5938,-22 z m 0,6.1875 c 9.1258,0 16.375,7.0798 16.375,15.8125 0,8.7326 -7.2491,15.8438 -16.375,15.8438 -9.1259,0 -16.3437,-7.1112 -16.3437,-15.8438 0,-8.7327 7.2178,-15.8125 16.3437,-15.8125 z m 0.031,38.62499 c 19.9809,0 36.2659,15.3081 37.8437,34.875 l -37.8437,0 a 3.10031,3.10031 0 0 0 -0.031,0 l -37.8437,0.25 c 1.4647,-19.6797 17.8138,-35.125 37.875,-35.125 z" fill="#000000" fill-opacity="1" stroke="none" marker="none" visibility="visible" display="inline" overflow="visible"/></g><text x="0" y="115" fill="#000000" font-size="5px" font-weight="bold" font-family="'Helvetica Neue', Helvetica, Arial-Unicode, Arial, Sans-serif">Created by Artdabana@Design</text><text x="0" y="120" fill="#000000" font-size="5px" font-weight="bold" font-family="'Helvetica Neue', Helvetica, Arial-Unicode, Arial, Sans-serif">from the Noun Project</text></svg>